<?xml version="1.0" encoding="utf-8"?>
<svg xmlns="http://www.w3.org/2000/svg" viewBox="397.1 234 16 16">
  <g transform="matrix(0.011806, 0, 0, 0.013632, 381.438568, 221.459885)">
    <g>
      <polygon class="st1" points="2000,1503.97 2338.82,917.11 1661.18,917.11 &#9;&#9;" style="fill: rgb(40, 78, 98);"/>
      <polygon class="st2" points="1661.18,917.11 1322.35,1503.97 2000,1503.97 &#9;&#9;" style="fill: rgb(53, 120, 176);"/>
      <polygon class="st1" points="2338.82,917.11 2000,1503.97 2677.65,1503.97 &#9;&#9;" style="fill: rgb(40, 78, 98);"/>
      <polygon class="st3" points="2000,1503.97 1661.18,2090.83 2338.82,2090.83 &#9;&#9;" style="fill: rgb(1, 84, 158);"/>
      <polygon class="st4" points="2338.82,2090.83 2677.65,1503.97 2000,1503.97 &#9;&#9;" style="fill: rgb(25, 63, 121);"/>
      <polygon class="st5" points="1661.18,2090.83 2000,1503.97 1322.35,1503.97 &#9;&#9;" style="fill: rgb(28, 95, 128);"/>
    </g>
    <g>
      <polygon class="st6" points="2000,1503.97 2271.06,1034.48 1728.94,1034.48 &#9;&#9;" style="fill: rgb(94, 134, 163);"/>
      <polygon class="st7" points="1728.94,1034.48 1457.88,1503.97 2000,1503.97 &#9;&#9;" style="fill: rgb(166, 201, 225);"/>
      <polygon class="st6" points="2271.06,1034.48 2000,1503.97 2542.12,1503.97 &#9;&#9;" style="fill: rgb(94, 134, 163);"/>
      <polygon class="st8" points="2000,1503.97 1728.94,1973.45 2271.06,1973.45 &#9;&#9;" style="fill: rgb(114, 162, 215);"/>
      <polygon class="st3" points="2271.06,1973.45 2542.12,1503.97 2000,1503.97 &#9;&#9;" style="fill: rgb(1, 84, 158);"/>
      <polygon class="st9" points="1728.94,1973.45 2000,1503.97 1457.88,1503.97 &#9;&#9;" style="fill: rgb(58, 113, 183);"/>
    </g>
    <g>
      <polygon class="st10" points="2000,1503.97 2216.85,1128.38 1783.15,1128.38 &#9;&#9;" style="fill: rgb(143, 199, 235);"/>
      <polygon class="st11" points="1783.15,1128.38 1566.31,1503.97 2000,1503.97 &#9;&#9;" style="fill: rgb(200, 229, 243);"/>
      <polygon class="st12" points="2216.85,1128.38 2000,1503.97 2433.69,1503.97 &#9;&#9;" style="fill: rgb(141, 192, 218);"/>
      <polygon class="st13" points="2000,1503.97 1783.15,1879.56 2216.85,1879.56 &#9;&#9;" style="fill: rgb(236, 247, 253);"/>
      <polygon class="st14" points="2216.85,1879.56 2433.69,1503.97 2000,1503.97 &#9;&#9;" style="fill: rgb(78, 183, 229);"/>
      <polygon class="st15" points="1783.15,1879.56 2000,1503.97 1566.31,1503.97 &#9;&#9;" style="fill: rgb(150, 200, 230);"/>
    </g>
    <g>
      <polygon class="st16" points="2000,1503.97 2173.48,1203.49 1826.52,1203.49 &#9;&#9;" style="fill: rgb(176, 220, 246);"/>
      <polygon class="st17" points="1826.52,1203.49 1653.04,1503.97 2000,1503.97 &#9;&#9;" style="fill: rgb(183, 216, 229);"/>
      <polygon class="st10" points="2173.48,1203.49 2000,1503.97 2346.96,1503.97 &#9;&#9;" style="fill: rgb(143, 199, 235);"/>
      <polygon class="st13" points="2000,1503.97 1826.52,1804.44 2173.48,1804.44 &#9;&#9;" style="fill: rgb(236, 247, 253);"/>
      <polygon class="st14" points="2173.48,1804.44 2346.96,1503.97 2000,1503.97 &#9;&#9;" style="fill: rgb(78, 183, 229);"/>
      <polygon class="st18" points="1826.52,1804.44 2000,1503.97 1653.04,1503.97 &#9;&#9;" style="fill: rgb(230, 244, 249);"/>
    </g>
    <g>
      <polygon class="st19" points="2000,1503.97 2138.78,1263.59 1861.22,1263.59 &#9;&#9;" style="fill: rgb(132, 185, 229);"/>
      <polygon class="st20" points="1861.22,1263.59 1722.44,1503.97 2000,1503.97 &#9;&#9;" style="fill: rgb(156, 200, 235);"/>
      <polygon class="st21" points="2138.78,1263.59 2000,1503.97 2277.56,1503.97 &#9;&#9;" style="fill: rgb(145, 201, 229);"/>
      <polygon class="st22" points="2000,1503.97 1861.22,1744.34 2138.78,1744.34 &#9;&#9;" style="fill: rgb(239, 248, 251);"/>
      <polygon class="st23" points="2138.78,1744.34 2277.56,1503.97 2000,1503.97 &#9;&#9;" style="fill: rgb(145, 202, 238);"/>
      <polygon class="st24" points="1861.22,1744.34 2000,1503.97 1722.44,1503.97 &#9;&#9;" style="fill: rgb(220, 240, 247);"/>
    </g>
    <g>
      <polygon class="st16" points="2000,1503.97 2111.03,1311.66 1888.97,1311.66 &#9;&#9;" style="fill: rgb(176, 220, 246);"/>
      <polygon class="st25" points="1888.97,1311.66 1777.95,1503.97 2000,1503.97 &#9;&#9;" style="fill: rgb(226, 242, 252);"/>
      <polygon class="st16" points="2111.03,1311.66 2000,1503.97 2222.05,1503.97 &#9;&#9;" style="fill: rgb(176, 220, 246);"/>
      <polygon class="st26" points="2000,1503.97 1888.97,1696.27 2111.03,1696.27 &#9;&#9;" style="fill: rgb(244, 250, 253);"/>
      <polygon class="st27" points="2111.03,1696.27 2222.05,1503.97 2000,1503.97 &#9;&#9;" style="fill: rgb(171, 214, 243);"/>
      <polygon class="st28" points="1888.97,1696.27 2000,1503.97 1777.95,1503.97 &#9;&#9;" style="fill: rgb(237, 247, 251);"/>
    </g>
  </g>
</svg>